<?xml version="1.0" encoding="UTF-8"?>
<svg width="201px" height="88px" viewBox="0 0 201 88" version="1.1" xmlns="http://www.w3.org/2000/svg" xmlns:xlink="http://www.w3.org/1999/xlink">
    <!-- Generator: Sketch 49.3 (51167) - http://www.bohemiancoding.com/sketch -->
    <title>droobi_logo</title>
    <desc>Created with Sketch.</desc>
    <defs>
        <polygon id="path-1" points="0.737075735 0.117236074 32.331501 0.117236074 32.331501 41.2924594 0.737075735 41.2924594"></polygon>
        <polygon id="path-3" points="0 88 200.275862 88 200.275862 0 0 0"></polygon>
    </defs>
    <g id="Admin-Desktop" stroke="none" stroke-width="1" fill="none" fill-rule="evenodd">
        <g id="admin-Login-Design" transform="translate(-603.000000, -180.000000)">
            <g id="logo" transform="translate(603.000000, 180.000000)">
                <g id="droobi_logo">
                    <path d="M61.7509727,25.1737258 C61.8457492,28.08581 60.8550514,30.5547685 58.7116446,32.7366201 C56.7845227,34.7407388 54.5147473,35.7162589 51.7727096,35.7162589 C51.5904471,35.7162589 51.4057545,35.7114336 51.2048607,35.7025871 C48.4288007,35.6109059 46.1395839,34.5613975 44.2067916,32.4953538 C42.2739993,30.4277016 41.3181339,27.976436 41.3651171,25.2099157 C41.4137204,22.3742325 42.415759,20.0387747 44.4336071,18.074867 C46.4352542,16.1246311 48.8257278,15.1362435 51.5369835,15.1362435 L51.7394973,15.1378519 C54.5115071,15.1378519 56.7950534,16.0932665 58.7181251,18.0587826 C60.7108615,20.0958744 61.7039895,22.4184646 61.7509727,25.1737258 Z M67.7648244,0 L61.8538498,0 L61.8538498,13.0830672 C59.0875104,10.7540432 55.795445,9.50991334 52.0351676,9.37882532 C47.5093877,9.22361066 43.5636076,10.7813867 40.3063746,14.006313 C37.0531919,17.1741395 35.4022989,21.0400298 35.4022989,25.4954142 C35.4022989,29.7899543 36.9243931,33.5303862 39.9256485,36.6137695 C42.9512057,39.7212795 46.7074328,41.3514354 51.0809222,41.4600053 C51.2931568,41.4672433 51.5029611,41.4712644 51.7119554,41.4712644 C55.9137131,41.4712644 59.6788509,39.9319854 62.9069219,36.8896173 C66.2403001,33.6960557 67.875802,29.8365991 67.7648244,25.4455525 L67.7648244,0 Z" id="Fill-1" fill="#0D5BD5"></path>
                    <path d="M78.8099917,10.2936724 C77.9719116,10.7354538 77.2383856,11.2385043 76.6011813,11.8116916 L76.6011813,9.66647163 L70.8045977,9.66647163 L70.8045977,40.4597701 L77.0745566,40.4597701 L77.0745566,22.233059 C77.0745566,20.5151094 77.3544655,19.2244303 77.9208693,18.3037835 C78.1818432,17.895055 78.7663588,17.1952989 80.0638188,16.1738807 C81.0566721,15.3935076 82.3681275,14.9759112 83.9644314,14.9331842 L84.9655172,14.9049682 L84.9655172,9.14165457 L83.9701942,9.10940774 C82.2084148,9.04975112 80.5330778,9.43751918 78.8099917,10.2936724" id="Fill-3" fill="#0D5BD5"></path>
                    <path d="M113.391868,25.0238741 C113.440478,27.9836421 112.431819,30.4803888 110.300268,32.6649409 C108.3745,34.6856921 106.105221,35.6684973 103.362803,35.6684973 C103.179705,35.6684973 102.994177,35.6644428 102.792445,35.654712 C100.016811,35.5630809 97.7272773,34.5040516 95.7942174,32.4216723 C93.8676389,30.3449693 92.9553901,27.9414755 93.00319,25.0741496 C93.0509899,22.2149326 94.0547876,19.8625252 96.0721049,17.8806969 C98.1023849,15.8867053 100.425946,14.9176854 103.174034,14.9176854 L103.379007,14.9193071 C106.116563,14.9193071 108.382602,15.8834617 110.30675,17.864479 C112.28842,19.9055026 113.297078,22.2538556 113.391868,25.0238741 M103.622867,9.11410735 C99.1029419,8.95760455 95.149324,10.5250653 91.8932604,13.7791883 C88.6388172,16.9749268 86.9885057,20.8729008 86.9885057,25.3644501 C86.9885057,29.6946313 88.5108107,33.4644837 91.5124816,36.5734565 C94.5384576,39.7067561 98.296015,41.350441 102.66849,41.4607227 C102.880753,41.4672099 103.091397,41.4712644 103.30123,41.4712644 C107.540838,41.4712644 111.2749,39.9159671 114.399716,36.8467282 C117.688187,33.616932 119.356322,29.7367978 119.356322,25.3133637 C119.356322,21.018051 117.815383,17.2457659 114.786977,14.1084118 C111.796648,10.9588943 108.042331,9.27953001 103.622867,9.11410735" id="Fill-5" fill="#0D5BD5"></path>
                    <path d="M149.807942,25.0238741 C149.854933,27.9836421 148.846249,30.4803888 146.715455,32.6649409 C144.788828,34.6856921 142.518682,35.6684973 139.777816,35.6684973 C139.593904,35.6684973 139.408371,35.6644428 139.208254,35.654712 C136.43093,35.5630809 134.142149,34.5040516 132.208231,32.4216723 C130.283225,30.3449693 129.370143,27.9414755 129.418754,25.0741496 C129.466555,22.2149326 130.469568,19.8625252 132.487746,17.8806969 C134.517266,15.8867053 136.840885,14.9176854 139.588232,14.9176854 L139.79402,14.9193071 C142.531645,14.9193071 144.798551,15.8834617 146.721126,17.864479 C148.703656,19.9055026 149.71234,22.2538556 149.807942,25.0238741 M140.037076,9.11410735 C135.513798,8.95760455 131.564132,10.5250653 128.307986,13.7791883 C125.053462,16.9749268 123.402299,20.8729008 123.402299,25.3644501 C123.402299,29.6946313 124.925452,33.4644837 127.926388,36.5734565 C130.95325,39.7067561 134.710091,41.350441 139.083485,41.4607227 C139.296565,41.4672099 139.506403,41.4712644 139.715432,41.4712644 C143.955955,41.4712644 147.690111,39.9159671 150.813385,36.8467282 C154.102748,33.616932 155.770115,29.7367978 155.770115,25.3133637 C155.770115,21.018051 154.231568,17.2457659 151.200655,14.1084118 C148.211872,10.9588943 144.456651,9.27953001 140.037076,9.11410735" id="Fill-7" fill="#0D5BD5"></path>
                    <g id="Group-11" transform="translate(157.793103, 0.000000)">
                        <mask id="mask-2" fill="white">
                            <use xlink:href="#path-1"></use>
                        </mask>
                        <g id="Clip-10"></g>
                        <path d="M26.4697684,25.1162737 C26.5163465,27.9004311 25.6108371,30.2642932 23.701136,32.341844 C21.8285394,34.3771261 19.5935812,35.4346433 16.8675795,35.572615 C16.6954774,35.5805903 16.5249543,35.5853754 16.3560101,35.5853754 L16.3552206,35.5853754 C13.7484272,35.5853754 11.5213636,34.6131933 9.55797925,32.6225726 C7.47617606,30.4692569 6.50908887,28.0017167 6.60382394,25.0668272 C6.6488231,22.3480668 7.61591029,20.0464117 9.55797925,18.0254851 C11.4337337,16.0755381 13.6592184,15.1288767 16.3599574,15.1288767 C19.1530631,15.1288767 21.4630199,16.0954762 23.4303516,18.0908821 C25.430051,20.074325 26.4239798,22.3727901 26.4697684,25.1162737 M16.0725943,9.46884668 C12.3795055,9.59884315 9.17193384,10.8278281 6.5027732,13.1239006 L6.5027732,0.117076569 L0.742091393,0.117076569 L0.742091393,25.1505673 L0.742091393,25.3260226 C0.635514438,29.7068237 2.2278531,33.5325478 5.47726605,36.7003144 C8.60194449,39.7468573 12.2721391,41.2924594 16.386799,41.2924594 C16.5904794,41.2924594 16.7957387,41.2884718 17.002577,41.2820916 C21.2885495,41.1201942 24.9453232,39.4868644 27.8734264,36.4267636 C30.831529,33.3339643 32.331501,29.6230836 32.331501,25.4009899 C32.331501,21.0169988 30.7067945,17.1832994 27.5079069,14.0123427 C24.3587553,10.8381959 20.4959327,9.30694925 16.0725943,9.46884668" id="Fill-9" fill="#0D5BD5" mask="url(#mask-2)"></path>
                    </g>
                    <mask id="mask-4" fill="white">
                        <use xlink:href="#path-3"></use>
                    </mask>
                    <g id="Clip-13"></g>
                    <polygon id="Fill-12" fill="#0D5BD5" mask="url(#mask-4)" points="193.195402 41.4712644 199.264368 41.4712644 199.264368 10.1149425 193.195402 10.1149425"></polygon>
                    <path d="M196.735632,7.08045977 C198.690587,7.08045977 200.275862,5.49700238 200.275862,3.54022989 C200.275862,1.58596286 198.690587,0 196.735632,0 C194.780678,0 193.195402,1.58596286 193.195402,3.54022989 C193.195402,5.49700238 194.780678,7.08045977 196.735632,7.08045977" id="Fill-14" fill="#0D5BD5" mask="url(#mask-4)"></path>
                    <path d="M44,88 C20.2962149,88 1.01149425,68.4883335 1.01149425,44.5061501 C1.01149425,20.5239667 20.2962149,1.01149425 44,1.01149425 C45.0899397,1.01149425 45.9747144,1.90285746 45.9747144,3.00215168 C45.9747144,4.1014459 45.0899397,4.99200317 44,4.99200317 C22.4736901,4.99200317 4.96012154,22.7193314 4.96012154,44.5061501 C4.96012154,66.2929688 22.4736901,84.0194911 44,84.0194911 C65.5271114,84.0194911 83.0398785,66.2929688 83.0398785,44.5061501 C83.0398785,43.4068559 83.9238516,42.5146867 85.0145928,42.5146867 C86.1037311,42.5146867 86.9885057,43.4068559 86.9885057,44.5061501 C86.9885057,68.4883335 67.7037851,88 44,88" id="Fill-15" fill="#B1B3B5" mask="url(#mask-4)"></path>
                    <path d="M43.4938543,1.49080542 C20.3257209,1.49080542 1.47700238,20.5594892 1.47700238,44.0004008 C1.47700238,67.4405108 20.3257209,86.5107976 43.4938543,86.5107976 C66.6619878,86.5107976 85.5115034,67.4405108 85.5115034,44.0004008 C85.5115034,43.3199202 84.9615133,42.7652765 84.2863805,42.7652765 C83.6112477,42.7652765 83.0612576,43.3199202 83.0612576,44.0004008 C83.0612576,66.0787482 65.3117222,84.0413505 43.4938543,84.0413505 C21.6759864,84.0413505 3.92724811,66.0787482 3.92724811,44.0004008 C3.92724811,21.9212518 21.6759864,3.95864946 43.4938543,3.95864946 C44.1689871,3.95864946 44.7197743,3.40480723 44.7197743,2.72432669 C44.7197743,2.04384615 44.1689871,1.49080542 43.4938543,1.49080542 M43.4938543,88 C19.5110979,88 0,68.2620568 0,44.0004008 C0,19.7395462 19.5110979,0 43.4938543,0 C44.9844072,0 46.1959796,1.22149864 46.1959796,2.72432669 C46.1959796,4.22715474 44.9844072,5.44785187 43.4938543,5.44785187 C22.4914065,5.44785187 5.40425049,22.7419963 5.40425049,44.0004008 C5.40425049,65.2580037 22.4914065,82.5513466 43.4938543,82.5513466 C64.4970992,82.5513466 81.5842553,65.2580037 81.5842553,44.0004008 C81.5842553,42.4983742 82.7958276,41.2760741 84.2863805,41.2760741 C85.7761363,41.2760741 86.9885057,42.4983742 86.9885057,44.0004008 C86.9885057,68.2620568 67.4774079,88 43.4938543,88" id="Fill-16" fill="#B1B3B5" mask="url(#mask-4)"></path>
                    <path d="M65.8827356,52.6657329 C62.3944583,45.2789498 61.851713,47.303832 59.1355888,49.9444153 C57.7071856,51.4938619 56.0909397,52.7970281 56.0909397,52.7970281 C56.0909397,52.7970281 55.2220677,53.5782754 55.3811345,53.7038622 C55.5402012,53.8286334 56.2931703,53.1640023 56.3251435,53.4518732 C56.3235449,53.6851057 56.2412138,53.8579913 56.5249761,54.0520799 C56.8183303,54.2029471 56.6153004,54.2902054 56.7727685,54.6490246 C57.1532497,54.8178328 58.5041178,53.4070208 59.5520398,52.5809211 C59.8949525,52.2881572 60.3138016,51.9921314 60.731052,51.7605299 C58.9437495,59.5354901 51.7178038,65.2749667 43.1977425,65.1061586 C38.0636441,65.0034058 33.4882777,62.7762801 30.3437124,59.3087816 C30.3389164,59.4792207 30.4172508,59.7401802 30.7074077,60.1332503 C30.0279769,59.803789 29.2134594,59.4726967 29.6203185,60.3306009 C29.0775732,60.265361 28.9416871,60.3306009 27.9233403,58.8137742 C27.2463076,57.8677962 27.044077,58.4590324 27.7594776,59.9970621 C31.0111532,65.2480553 37.0708759,68.7816092 44.0154573,68.7816092 C54.1533632,68.7816092 62.4104449,61.2545604 62.7837321,51.8404487 C63.2417484,52.4210834 63.7860923,53.3972348 64.7724658,54.5805228 C66.0322103,56.0908255 65.499057,53.9721611 66.1145413,54.7949988 C67.6884227,56.7864455 65.8827356,52.6657329 65.8827356,52.6657329" id="Fill-17" fill="#0D5BD5" mask="url(#mask-4)"></path>
                    <path d="M27.8943726,57.8251571 C27.9469558,58.0424419 28.0602119,58.3727466 28.2826793,58.8367651 C31.6148358,64.0213553 37.8293605,67.2599334 44.4863929,67.2599334 C54.6098713,67.2599334 62.8338829,60.1046577 63.2076281,50.9715331 L63.2375601,50.2639647 L63.6970563,50.8258807 C63.8766481,51.0447573 64.0659476,51.3145725 64.2843701,51.6273671 C64.6427448,52.1407322 65.0892975,52.7806479 65.7065433,53.4937877 C65.9516619,53.7771335 66.094041,53.8837861 66.1611857,53.9235818 L66.2056792,53.8081742 C66.2582624,53.6625217 66.3464403,53.4157881 66.617446,53.4157881 C66.8140263,53.4157881 66.9580233,53.566216 67.0720884,53.7142562 L67.1181998,53.7707661 C66.9612592,53.2772989 66.6603216,52.5323224 66.3666646,51.8852435 C64.7034177,48.4898702 63.6404282,47.0381212 62.8136586,47.0381212 C62.2611306,47.0381212 61.6471207,47.6573431 60.8696984,48.4397275 C60.5986927,48.7127264 60.3050358,49.0080108 59.9814469,49.3104585 C58.550375,50.8083705 56.8992627,52.0985487 56.8814653,52.1112834 L56.7358503,52.2426094 C56.9728792,52.1860994 57.1904927,52.3094662 57.2163798,52.5243633 C57.2179978,52.6023629 57.2147619,52.6493219 57.210717,52.6930972 C57.1977734,52.8467088 57.1969645,52.8586476 57.3045578,52.9302799 C57.5650468,53.0560345 57.5933609,53.228748 57.5982147,53.3911147 L57.6022596,53.4531961 C57.881355,53.3075436 58.550375,52.7392603 59.0114892,52.3484661 C59.3544934,52.0563653 59.7104412,51.7539176 60.0388839,51.5047962 C60.4093932,51.1999607 60.8486651,50.9054722 61.2685217,50.6802282 L61.8040613,50.3929029 L61.6689629,50.9580026 C59.8423036,58.621868 52.4248373,64.1853138 44.0309415,64.1853138 L44.0293236,64.1853138 C43.9047419,64.1853138 43.7785422,64.1845179 43.6523425,64.1829261 C39.2434439,64.0985591 35.0157551,62.4916067 31.7887649,59.7210266 L30.8956595,59.3031713 C30.5243413,59.1296618 30.2573805,59.0269888 30.0980129,58.9991317 L30.1659666,59.1599066 L30.3714455,59.5777619 L29.8003111,59.511701 C29.2040986,59.4472319 28.9686877,59.3580894 27.9720339,57.9246465 L27.8943726,57.8251571 Z M44.4863929,67.7701149 C37.638443,67.7701149 31.2459445,64.4384148 27.8013408,59.0739477 C27.4785609,58.4077669 27.1590168,57.5768316 27.387956,57.2449351 C27.4575276,57.1454457 27.5707837,57.0849562 27.6969834,57.0849562 C27.9154059,57.0849562 28.1394912,57.2568738 28.4234404,57.6405048 C29.047967,58.537501 29.3068381,58.8240304 29.5349683,58.931479 C29.5325413,58.8383569 29.5511477,58.7484185 29.6061578,58.6696229 C29.6757294,58.5653581 29.9014327,58.3894608 30.4199839,58.5510316 C30.388434,58.4483586 30.3738725,58.3528488 30.3771083,58.2621144 L30.3932878,57.6094642 L30.853593,58.0989519 C34.0951447,61.5460597 38.7645324,63.5764388 43.6644771,63.6711527 C51.7533904,63.8351112 58.9338278,58.6855412 60.9764827,51.4618168 C60.7726217,51.5979182 60.5736145,51.7451625 60.3899778,51.8963863 C60.06558,52.1423241 59.715295,52.4399963 59.3771446,52.7273216 C58.2680437,53.6672972 57.6831568,54.1225606 57.2843335,53.9538266 L57.1880658,53.9132349 L57.1468082,53.8209088 C57.0602482,53.631481 57.0553943,53.4961755 57.0529674,53.4062371 L57.0197996,53.3648495 C56.7431311,53.1833809 56.6735594,52.9931572 56.6622338,52.8323824 L56.5894263,52.8705863 C56.3855653,52.9772389 56.2100184,53.069565 56.0441791,53.069565 C55.9365858,53.069565 55.8629693,53.0313611 55.8184758,52.9987286 L55.7213991,52.9247085 L55.69713,52.7679133 C55.6938941,52.6803626 55.6866133,52.451935 56.5222816,51.7268564 C56.5497867,51.7053667 58.171776,50.4382701 59.5858595,48.9586641 C59.9151111,48.6514409 60.2039142,48.3593401 60.4708751,48.0911168 C61.3728791,47.1845696 62.0241017,46.5287356 62.8136586,46.5287356 C63.9421749,46.5287356 65.0027375,47.8762197 66.8649915,51.6783056 C67.9781373,54.128132 67.782366,54.4059063 67.7087496,54.5101712 C67.6464587,54.5993137 67.5453372,54.6502522 67.4320811,54.6502522 C67.2613879,54.6502522 67.0817961,54.5555383 66.6829728,54.0771934 C66.6125922,54.2459274 66.4839656,54.4568449 66.2008253,54.4568449 C65.9451901,54.4568449 65.6717575,54.2650294 65.2826419,53.8161333 C64.6484076,53.0822997 64.1929563,52.4320371 63.8281098,51.9075291 L63.705955,51.7340197 C62.9172071,60.7843691 54.6276687,67.7701149 44.4863929,67.7701149 Z" id="Fill-18" fill="#0D5BD5" mask="url(#mask-4)"></path>
                </g>
            </g>
        </g>
    </g>
</svg>